<?xml version="1.0" standalone="no"?>
<!DOCTYPE svg PUBLIC "-//W3C//DTD SVG 20010904//EN"
 "http://www.w3.org/TR/2001/REC-SVG-20010904/DTD/svg10.dtd">
<svg version="1.0" xmlns="http://www.w3.org/2000/svg"
 width="192.000000pt" height="192.000000pt" viewBox="0 0 192.000000 192.000000"
 preserveAspectRatio="xMidYMid meet">
<metadata>
Created by potrace 1.16, written by Peter Selinger 2001-2019
</metadata>
<g transform="translate(0.000000,192.000000) scale(0.100000,-0.100000)"
fill="#000000" stroke="none">
<path d="M0 960 l0 -960 960 0 960 0 0 960 0 960 -960 0 -960 0 0 -960z m1276
539 l314 -181 -2 -360 -3 -359 -312 -180 -313 -181 -312 181 -313 180 -3 359
-2 360 312 181 c172 99 315 180 317 181 1 0 144 -81 317 -181z"/>
<path d="M685 1441 l-270 -157 -3 -42 c-2 -23 -1 -42 3 -42 3 0 127 70 275
156 l270 156 220 -127 220 -127 35 22 c20 12 35 24 33 25 -5 5 -509 295 -511
294 -1 0 -123 -71 -272 -158z"/>
<path d="M919 1407 l-37 -23 202 -115 201 -115 3 -236 2 -237 35 21 35 20 -2
240 -3 240 -195 114 c-107 62 -197 113 -200 113 -3 0 -21 -10 -41 -22z"/>
<path d="M673 1267 l-123 -72 0 -235 0 -235 40 -22 40 -21 2 236 3 236 123 70
c67 39 122 74 122 78 0 10 -55 38 -72 37 -7 0 -68 -33 -135 -72z"/>
<path d="M830 1186 l-125 -74 -3 -46 -3 -46 130 76 131 76 71 -41 c39 -23 72
-41 74 -41 2 0 20 10 40 21 l36 22 -108 63 c-59 35 -110 63 -113 63 -3 0 -61
-33 -130 -73z"/>
<path d="M1468 1218 l-38 -22 -2 -259 -3 -259 -180 -105 c-99 -57 -187 -108
-195 -113 -13 -8 -12 -11 5 -24 44 -34 55 -31 258 86 l197 113 0 303 c0 166
-1 302 -2 302 -2 0 -20 -10 -40 -22z"/>
<path d="M442 1130 l-32 -20 2 -237 3 -237 272 -158 273 -157 39 22 39 22
-279 160 -279 160 -2 232 -3 233 -33 -20z"/>
<path d="M1178 1048 l-38 -22 0 -87 0 -88 -50 -27 c-27 -15 -50 -30 -50 -34 0
-4 15 -15 34 -25 l33 -18 57 32 56 32 0 130 c0 71 -1 129 -2 129 -2 0 -20 -10
-40 -22z"/>
<path d="M733 958 c-32 -19 -33 -23 -33 -83 l0 -63 108 -63 c59 -34 116 -68
127 -75 18 -12 26 -10 59 10 l38 23 -124 70 -123 70 -3 67 c-2 36 -6 66 -10
65 -4 0 -22 -10 -39 -21z"/>
<path d="M700 686 l0 -44 130 -77 130 -76 130 76 130 77 0 43 0 44 -132 -74
-132 -74 -30 18 c-17 10 -75 44 -128 74 l-98 56 0 -43z"/>
</g>
</svg>
